<svg width="61" height="61" viewBox="0 0 61 61" fill="none" xmlns="http://www.w3.org/2000/svg">
<path d="M18.3888 0.750366H43.5888C53.1888 0.750366 60.9888 8.55037 60.9888 18.1504V43.3504C60.9888 47.9651 59.1556 52.3909 55.8924 55.654C52.6293 58.9172 48.2035 60.7504 43.5888 60.7504H18.3888C8.78877 60.7504 0.98877 52.9504 0.98877 43.3504V18.1504C0.98877 13.5356 2.82198 9.10984 6.08511 5.84671C9.34824 2.58358 13.774 0.750366 18.3888 0.750366ZM17.7888 6.75037C14.9244 6.75037 12.1774 7.88822 10.152 9.91361C8.12662 11.939 6.98877 14.686 6.98877 17.5504V43.9504C6.98877 49.9204 11.8188 54.7504 17.7888 54.7504H44.1888C47.0531 54.7504 49.8001 53.6125 51.8255 51.5871C53.8509 49.5617 54.9888 46.8147 54.9888 43.9504V17.5504C54.9888 11.5804 50.1588 6.75037 44.1888 6.75037H17.7888ZM46.7388 11.2504C47.7333 11.2504 48.6872 11.6455 49.3904 12.3487C50.0937 13.052 50.4888 14.0058 50.4888 15.0004C50.4888 15.9949 50.0937 16.9488 49.3904 17.652C48.6872 18.3553 47.7333 18.7504 46.7388 18.7504C45.7442 18.7504 44.7904 18.3553 44.0871 17.652C43.3839 16.9488 42.9888 15.9949 42.9888 15.0004C42.9888 14.0058 43.3839 13.052 44.0871 12.3487C44.7904 11.6455 45.7442 11.2504 46.7388 11.2504ZM30.9888 15.7504C34.967 15.7504 38.7823 17.3307 41.5954 20.1438C44.4084 22.9568 45.9888 26.7721 45.9888 30.7504C45.9888 34.7286 44.4084 38.5439 41.5954 41.357C38.7823 44.17 34.967 45.7504 30.9888 45.7504C27.0105 45.7504 23.1952 44.17 20.3822 41.357C17.5691 38.5439 15.9888 34.7286 15.9888 30.7504C15.9888 26.7721 17.5691 22.9568 20.3822 20.1438C23.1952 17.3307 27.0105 15.7504 30.9888 15.7504ZM30.9888 21.7504C28.6018 21.7504 26.3126 22.6986 24.6248 24.3864C22.937 26.0742 21.9888 28.3634 21.9888 30.7504C21.9888 33.1373 22.937 35.4265 24.6248 37.1143C26.3126 38.8022 28.6018 39.7504 30.9888 39.7504C33.3757 39.7504 35.6649 38.8022 37.3527 37.1143C39.0406 35.4265 39.9888 33.1373 39.9888 30.7504C39.9888 28.3634 39.0406 26.0742 37.3527 24.3864C35.6649 22.6986 33.3757 21.7504 30.9888 21.7504Z" fill="white"/>
</svg>
