<svg width="61" height="61" viewBox="0 0 61 61" fill="none" xmlns="http://www.w3.org/2000/svg">
<path d="M4.19043 60.8732C11.3571 60.8732 18.3427 59.2898 25.1471 56.1232C31.9538 52.9565 37.9815 48.7343 43.2304 43.4565C48.4815 38.1787 52.7038 32.1365 55.8971 25.3298C59.0927 18.5254 60.6904 11.5398 60.6904 4.37317V2.62317C60.6904 2.01206 60.6349 1.42872 60.5238 0.873169H41.0238L37.9404 17.6232L47.4404 27.2065C45.1071 31.2065 42.176 34.9565 38.6471 38.4565C35.1204 41.9565 31.246 44.9843 27.0238 47.5398L17.3571 37.8732L0.690431 41.2065V60.7065C1.24599 60.7621 1.82932 60.8043 2.44043 60.8332C3.05154 60.8598 3.63487 60.8732 4.19043 60.8732Z" fill="white"/>
</svg>
