<svg width="61" height="50" viewBox="0 0 61 50" fill="none" xmlns="http://www.w3.org/2000/svg">
<path d="M60.8423 6.4865C58.6339 7.49033 56.2534 8.14998 53.7868 8.46547C56.3107 6.9454 58.261 4.53622 59.1788 1.63947C56.7983 3.0735 54.1597 4.07733 51.3777 4.65094C49.1119 2.1844 45.9283 0.750366 42.3146 0.750366C35.5746 0.750366 30.0679 6.25706 30.0679 13.0544C30.0679 14.0295 30.1826 14.976 30.3834 15.8651C20.1731 15.3488 11.0813 10.4444 5.02967 3.01614C3.96848 4.82302 3.36619 6.9454 3.36619 9.18249C3.36619 13.4559 5.51724 17.2418 8.8442 19.3928C6.80787 19.3928 4.91494 18.8192 3.25146 17.9588V18.0448C3.25146 24.0104 7.49621 29.0008 13.1176 30.1194C11.3128 30.6133 9.41809 30.682 7.58225 30.3202C8.36123 32.7651 9.88685 34.9045 11.9446 36.4375C14.0024 37.9706 16.4889 38.8202 19.0545 38.867C14.7055 42.3099 9.31455 44.171 3.76772 44.1442C2.79257 44.1442 1.81743 44.0869 0.842285 43.9722C6.29162 47.4712 12.7735 49.5075 19.7142 49.5075C42.3146 49.5075 54.7333 30.7504 54.7333 14.4884C54.7333 13.9435 54.7333 13.4272 54.7046 12.8823C57.1138 11.1615 59.1788 8.98172 60.8423 6.4865Z" fill="white"/>
</svg>
